<svg xmlns="http://www.w3.org/2000/svg" viewBox="0 0 814.95 162.52"><defs><style>.\32 a56c967-237d-4bb0-9d46-861c3f7ff2b0{fill:#39b54a;}.c187282f-9d71-4274-b176-2c19ec94bfd5{fill:#fff;}</style></defs><title>LT Student Logo</title><g id="70cac952-efd6-4376-9063-57bb36648e70" data-name="Layer 2"><path class="2a56c967-237d-4bb0-9d46-861c3f7ff2b0" d="M34.55,109.51a34,34,0,0,0,10.21,25,34.44,34.44,0,0,0,25,10.21q3,5.87,8.91,17.82H69.75a50.16,50.16,0,0,1-26.07-7,51.35,51.35,0,0,1-18.9-18,47.39,47.39,0,0,1-5.87-13.25,50.62,50.62,0,0,1-2.17-14.77V96.69a36.45,36.45,0,0,0-7.17-9.78A21.62,21.62,0,0,0,0,81.26a30.56,30.56,0,0,0,9.34-6.08,46.76,46.76,0,0,0,7.39-9.78V53.23a51.32,51.32,0,0,1,7-26.29A51.4,51.4,0,0,1,41.72,8,47.4,47.4,0,0,1,55,2.17,50.73,50.73,0,0,1,69.75,0h8.91q-1.74,3.7-2,3.69,0,.22-2.82,6.08a38.05,38.05,0,0,0-1.74,3.48q-1.09,2-2.39,4.56a34.09,34.09,0,0,0-25,10.43,34,34,0,0,0-10.21,25v13a45.11,45.11,0,0,0-2.17,9.13q-.65,3.91-5.87,5.87,5.43,1.52,6.08,5.21a67.52,67.52,0,0,0,2,9.34v13.69Z"/><path class="2a56c967-237d-4bb0-9d46-861c3f7ff2b0" d="M748.6,102.12v-6.3a67.65,67.65,0,0,0,2-9.34q.65-3.69,6.08-5.21-5.21-2-5.87-5.87a45.19,45.19,0,0,0-2.17-9.13v-13a34,34,0,0,0-10.21-25,34.09,34.09,0,0,0-25-10.43q-1.3-2.61-2.39-4.56a38.32,38.32,0,0,0-1.74-3.48q-2.82-5.87-2.82-6.08-.22,0-2-3.69h8.91a50.74,50.74,0,0,1,14.77,2.17A47.41,47.41,0,0,1,741.43,8a51.41,51.41,0,0,1,18,18.9,51.33,51.33,0,0,1,7,26.29V65.4a46.71,46.71,0,0,0,7.39,9.78,30.54,30.54,0,0,0,9.34,6.08,21.61,21.61,0,0,0-9.56,5.65,36.43,36.43,0,0,0-7.17,9.78v12.82a50.63,50.63,0,0,1-2.17,14.77,47.41,47.41,0,0,1-5.87,13.25,51.36,51.36,0,0,1-18.9,18,50.17,50.17,0,0,1-26.07,7h-8.91q5.87-11.95,8.91-17.82a34.44,34.44,0,0,0,25-10.21,34,34,0,0,0,10.21-25Z"/><path class="2a56c967-237d-4bb0-9d46-861c3f7ff2b0" d="M794.93,98.45h20l-17.6,64.07h-20Zm18.76-62.07V56.93h-20V36.38Z"/><path class="c187282f-9d71-4274-b176-2c19ec94bfd5" d="M149.15,51.48A37,37,0,0,0,127,43.91c-9.65,0-15.51,5.3-15.51,12.48,0,4.73,2.46,8.32,7.75,11.54l17,10.59c12.67,7.38,17.4,15.51,17.4,26.1,0,14.75-10.59,28.18-32.34,28.18a56.24,56.24,0,0,1-24.77-5.86V109.72c5.48,4.35,14.37,8.89,24.21,8.89,11,0,16.64-6.24,16.64-13,0-4.92-3-9.27-9.27-13L111.32,81.92c-12.1-7-15.89-14.94-15.89-25.15,0-13.24,8.7-27,32.34-27a45.13,45.13,0,0,1,21.37,5.11Z"/><path class="c187282f-9d71-4274-b176-2c19ec94bfd5" d="M192.07,45.61H166.16V31.24h66.76V45.61H207.2v85.48H192.07Z"/><path class="c187282f-9d71-4274-b176-2c19ec94bfd5" d="M324.83,31.24V95.16c0,23.26-14.18,37.63-36.69,37.63s-36.69-14.37-36.69-37.63V31.24h15.13V95.92c0,13.24,8.51,22.13,21.75,22.13,13,0,21.37-8.89,21.37-22.13V31.24Z"/><path class="c187282f-9d71-4274-b176-2c19ec94bfd5" d="M353.77,31.24h35.55c30.07,0,49,20.8,49,49.93,0,29.31-18.91,49.93-49,49.93H353.77ZM368.9,45.61v71.11h20.24c21.18,0,33.66-15.13,33.66-35.55,0-20.24-12.48-35.55-33.66-35.55Z"/><path class="c187282f-9d71-4274-b176-2c19ec94bfd5" d="M461.94,131.09V31.24h54.46V45.61H477.07v28h36.5V88h-36.5v28.75h39.34v14.37Z"/><path class="c187282f-9d71-4274-b176-2c19ec94bfd5" d="M558.58,63.77v67.33H543.45V43l-6.81-10.4V31.24H554.8l53,73.76V31.24h15.13v99.85H607.75Z"/><path class="c187282f-9d71-4274-b176-2c19ec94bfd5" d="M668.64,45.61H642.73V31.24h66.76V45.61H683.77v85.48H668.64Z"/></g></svg>