<svg id="fd993975-91be-4a1e-9e81-4075cee94510" data-name="Layer 1" xmlns="http://www.w3.org/2000/svg" viewBox="0 0 820.76 162.52"><defs><style>.\37 6f4cde0-cdb6-4032-abb7-13e0d81f55f8{fill:#4d4d4d;}.e8ce8831-bd71-476a-b973-b20473e92a27{fill:#39b54a;}</style></defs><title>LT Student Logo (Dark)</title><path class="76f4cde0-cdb6-4032-abb7-13e0d81f55f8" d="M34.55,109.51a34,34,0,0,0,10.21,25,34.44,34.44,0,0,0,25,10.21q3,5.87,8.91,17.82H69.75a50.16,50.16,0,0,1-26.07-7,51.35,51.35,0,0,1-18.9-18,47.39,47.39,0,0,1-5.87-13.25,50.62,50.62,0,0,1-2.17-14.77V96.69a36.45,36.45,0,0,0-7.17-9.78A21.62,21.62,0,0,0,0,81.26a30.56,30.56,0,0,0,9.34-6.08,46.76,46.76,0,0,0,7.39-9.78V53.23a51.32,51.32,0,0,1,7-26.29A51.4,51.4,0,0,1,41.72,8,47.4,47.4,0,0,1,55,2.17,50.73,50.73,0,0,1,69.75,0h8.91q-1.74,3.7-2,3.69,0,.22-2.82,6.08a38.05,38.05,0,0,0-1.74,3.48q-1.09,2-2.39,4.56a34.09,34.09,0,0,0-25,10.43,34,34,0,0,0-10.21,25v13a45.11,45.11,0,0,0-2.17,9.13q-.65,3.91-5.87,5.87,5.43,1.52,6.08,5.21a67.52,67.52,0,0,0,2,9.34v13.69Z"/><path class="76f4cde0-cdb6-4032-abb7-13e0d81f55f8" d="M748.6,102.12v-6.3a67.65,67.65,0,0,0,2-9.34q.65-3.69,6.08-5.21-5.21-2-5.87-5.87a45.19,45.19,0,0,0-2.17-9.13v-13a34,34,0,0,0-10.21-25,34.09,34.09,0,0,0-25-10.43q-1.3-2.61-2.39-4.56a38.32,38.32,0,0,0-1.74-3.48q-2.82-5.87-2.82-6.08-.22,0-2-3.69h8.91a50.74,50.74,0,0,1,14.77,2.17A47.41,47.41,0,0,1,741.43,8a51.41,51.41,0,0,1,18,18.9,51.33,51.33,0,0,1,7,26.29V65.4a46.71,46.71,0,0,0,7.39,9.78,30.54,30.54,0,0,0,9.34,6.08,21.61,21.61,0,0,0-9.56,5.65,36.43,36.43,0,0,0-7.17,9.78v12.82a50.63,50.63,0,0,1-2.17,14.77,47.41,47.41,0,0,1-5.87,13.25,51.36,51.36,0,0,1-18.9,18,50.17,50.17,0,0,1-26.07,7h-8.91q5.87-11.95,8.91-17.82a34.44,34.44,0,0,0,25-10.21,34,34,0,0,0,10.21-25Z"/><path class="76f4cde0-cdb6-4032-abb7-13e0d81f55f8" d="M800.74,98.45h20l-17.6,64.07h-20ZM819.5,36.38V56.93h-20V36.38Z"/><path class="e8ce8831-bd71-476a-b973-b20473e92a27" d="M138.25,51.93a37,37,0,0,0-22.13-7.56c-9.65,0-15.51,5.29-15.51,12.48,0,4.73,2.46,8.32,7.75,11.54l17,10.59c12.67,7.38,17.4,15.51,17.4,26.1,0,14.75-10.59,28.18-32.34,28.18a56.24,56.24,0,0,1-24.77-5.86V110.18c5.48,4.35,14.37,8.89,24.21,8.89,11,0,16.64-6.24,16.64-13,0-4.92-3-9.27-9.27-13L100.43,82.38c-12.1-7-15.89-14.94-15.89-25.15,0-13.24,8.7-27,32.34-27a45.14,45.14,0,0,1,21.37,5.11Z"/><path class="e8ce8831-bd71-476a-b973-b20473e92a27" d="M181.18,46.07H155.27V31.7H222V46.07H196.31v85.48H181.18Z"/><path class="e8ce8831-bd71-476a-b973-b20473e92a27" d="M313.94,31.7V95.62c0,23.26-14.18,37.63-36.69,37.63s-36.69-14.37-36.69-37.63V31.7h15.13V96.38c0,13.24,8.51,22.13,21.75,22.13,13,0,21.37-8.89,21.37-22.13V31.7Z"/><path class="e8ce8831-bd71-476a-b973-b20473e92a27" d="M342.88,31.7h35.55c30.07,0,49,20.8,49,49.93,0,29.31-18.91,49.93-49,49.93H342.88ZM358,46.07v71.11h20.24c21.18,0,33.66-15.13,33.66-35.55,0-20.24-12.48-35.55-33.66-35.55Z"/><path class="e8ce8831-bd71-476a-b973-b20473e92a27" d="M451,131.55V31.7h54.46V46.07H466.18v28h36.5V88.43h-36.5v28.75h39.34v14.37Z"/><path class="e8ce8831-bd71-476a-b973-b20473e92a27" d="M547.69,64.23v67.33H532.56V43.42L525.75,33V31.7H543.9l53,73.76V31.7H612v99.85H596.86Z"/><path class="e8ce8831-bd71-476a-b973-b20473e92a27" d="M657.75,46.07H631.84V31.7H698.6V46.07H672.88v85.48H657.75Z"/></svg>