<?xml version="1.0" standalone="no"?>
<!DOCTYPE svg PUBLIC "-//W3C//DTD SVG 20010904//EN"
 "http://www.w3.org/TR/2001/REC-SVG-20010904/DTD/svg10.dtd">
<svg version="1.0" xmlns="http://www.w3.org/2000/svg"
 width="1000.000000pt" height="1000.000000pt" viewBox="0 0 1000.000000 1000.000000"
 preserveAspectRatio="xMidYMid meet">
<metadata>
Created by potrace 1.11, written by Peter Selinger 2001-2013
</metadata>
<g transform="translate(0.000000,1000.000000) scale(0.100000,-0.100000)"
fill="#000000" stroke="none">
<path d="M4170 8304 c-7 -18 -19 -56 -36 -119 -2 -5 -55 -176 -119 -380 -64
-203 -118 -377 -120 -385 -2 -8 -27 -89 -55 -180 -28 -91 -53 -172 -55 -180
-2 -8 -16 -51 -30 -95 -15 -44 -30 -93 -35 -110 -4 -16 -45 -147 -89 -290 -45
-143 -84 -267 -86 -275 -2 -8 -26 -87 -53 -175 -91 -290 -234 -749 -247 -795
-7 -25 -27 -90 -45 -145 -44 -139 -157 -507 -161 -525 -4 -12 91 -14 733 -15
405 0 740 -3 743 -7 4 -3 -10 -57 -30 -120 -20 -62 -100 -313 -177 -558 -77
-245 -158 -501 -179 -570 -22 -69 -53 -165 -68 -215 -40 -126 -145 -463 -316
-1005 -81 -256 -148 -469 -148 -475 -1 -6 138 -10 373 -10 l375 -1 16 51 c10
27 35 109 57 180 22 72 78 254 125 405 47 151 150 487 230 745 80 259 211 682
290 940 80 259 155 502 167 540 11 39 24 77 29 85 7 13 102 15 727 16 395 1
724 2 731 3 6 0 46 108 88 239 43 130 97 294 120 364 28 83 39 128 31 130 -6
3 -671 4 -1478 4 -1301 -1 -1467 1 -1464 14 6 19 33 110 250 815 96 314 236
770 311 1015 169 553 204 668 215 700 9 24 51 165 56 185 1 6 16 55 33 110 17
55 31 102 31 105 0 3 -165 5 -366 5 -365 0 -366 0 -374 -21z"/>
</g>
</svg>
